<svg xmlns="http://www.w3.org/2000/svg" xmlns:svg="http://www.w3.org/2000/svg" id="Capa_1" width="64" height="64" x="0" y="0" version="1.1" viewBox="0 0 64 64" xml:space="preserve"><metadata id="metadata43"/><g id="g6" transform="scale(0.125)" style="stroke-width:8;fill:#fff"><g id="g4" style="stroke-width:8;fill:#fff"><path id="path2" d="M 492,236 H 276 V 20 C 276,8.954 267.046,0 256,0 244.954,0 236,8.954 236,20 V 236 H 20 c -11.046,0 -20,8.954 -20,20 0,11.046 8.954,20 20,20 h 216 v 216 c 0,11.046 8.954,20 20,20 11.046,0 20,-8.954 20,-20 V 276 h 216 c 11.046,0 20,-8.954 20,-20 0,-11.046 -8.954,-20 -20,-20 z" style="stroke-width:8;fill:#fff"/></g></g></svg>